<svg xmlns="http://www.w3.org/2000/svg" viewBox="0 0 18 22">
<path d="M12,5.8c0-1.5,2.2-3,2.2-4.2c0-0.7-0.7-0.7-0.7-0.7H9H4.5c0,0-0.7,0-0.7,0.7C3.8,2.8,6,4.3,6,5.8c0,2-5.8,4.4-5.8,10.5
	c0,2.3,1.6,4.8,6.7,4.8H9h2.1c5.1,0,6.7-2.5,6.7-4.8C17.8,10.2,12,7.8,12,5.8z M11.2,9.9c0.6,0,1,0.4,1,1c0,0.5-0.4,1-1,1
	c-0.6,0-1-0.4-1-1C10.2,10.3,10.6,9.9,11.2,9.9z M7.2,9.9c0.6,0,1,0.4,1,1c0,0.5-0.4,1-1,1c-0.6,0-1-0.4-1-1
	C6.2,10.3,6.6,9.9,7.2,9.9z M14.7,15.7c-1.7,1.6-3.5,2.5-5.4,2.5c-0.1,0-0.2,0-0.3,0c-3-0.2-5-2.5-5-2.6c-0.2-0.3-0.2-0.7,0.1-0.9
	c0.3-0.2,0.7-0.2,0.9,0.1c0,0,1.7,1.9,4.1,2c1.6,0.1,3.1-0.6,4.6-2.1c0.3-0.3,0.7-0.2,1,0C15,15,15,15.4,14.7,15.7z" fill="currentColor"/>
</svg>
