<svg fill="none" viewBox="0 0 37 37" xmlns="http://www.w3.org/2000/svg"><path d="M3.33333 33.3333C3.11111 33.3333 2.89611 33.2844 2.68833 33.1867C2.48056 33.0889 2.30667 32.9711 2.16667 32.8333C1.83333 32.5278 1.66667 32.1461 1.66667 31.6883C1.66667 31.2306 1.81944 30.8344 2.125 30.5C2.65278 29.9444 3.285 29.6111 4.02167 29.5C4.75833 29.3889 5.50111 29.4028 6.25 29.5417C6.47222 29.5972 6.68056 29.6528 6.875 29.7083C7.06944 29.7639 7.23611 29.7222 7.375 29.5833C7.54167 29.4167 7.60444 29.2083 7.56333 28.9583C7.52222 28.7083 7.47333 28.4722 7.41667 28.25C7.30555 27.5 7.29167 26.7567 7.375 26.02C7.45833 25.2833 7.76389 24.6378 8.29167 24.0833C8.81944 23.5289 9.45111 23.1956 10.1867 23.0833C10.9222 22.9711 11.6656 22.985 12.4167 23.125C12.6389 23.1806 12.8544 23.2361 13.0633 23.2917C13.2722 23.3472 13.4456 23.3056 13.5833 23.1667C13.75 23 13.8056 22.7917 13.75 22.5417C13.6944 22.2917 13.6389 22.0556 13.5833 21.8333C13.4722 21.0833 13.4583 20.3406 13.5417 19.605C13.625 18.8694 13.9306 18.2233 14.4583 17.6667C14.9861 17.11 15.6178 16.7767 16.3533 16.6667C17.0889 16.5567 17.8322 16.5706 18.5833 16.7083C18.8056 16.7639 19.0206 16.8194 19.2283 16.875C19.4361 16.9306 19.61 16.8889 19.75 16.75C19.9167 16.5833 19.9722 16.375 19.9167 16.125C19.8611 15.875 19.8056 15.6389 19.75 15.4167C19.6389 14.6667 19.6317 13.9239 19.7283 13.1883C19.825 12.4528 20.1378 11.8067 20.6667 11.25C21.1956 10.6933 21.8278 10.36 22.5633 10.25C23.2989 10.14 24.0417 10.1539 24.7917 10.2917C25.0139 10.3472 25.2294 10.4028 25.4383 10.4583C25.6472 10.5139 25.8206 10.4722 25.9583 10.3333C26.125 10.1667 26.1806 9.95833 26.125 9.70833C26.0694 9.45833 26.0139 9.22222 25.9583 9C25.8472 8.25 25.8406 7.50667 25.9383 6.77C26.0361 6.03333 26.3483 5.38778 26.875 4.83333C27.4017 4.27889 28.0339 3.94556 28.7717 3.83333C29.5094 3.72111 30.2522 3.735 31 3.875C31.2222 3.93056 31.4372 3.97944 31.645 4.02167C31.8528 4.06389 32.0267 4.015 32.1667 3.875C32.4722 3.54167 32.8544 3.375 33.3133 3.375C33.7722 3.375 34.1678 3.52778 34.5 3.83333C34.8322 4.13889 34.9989 4.52111 35 4.98C35.0011 5.43889 34.8483 5.83444 34.5417 6.16667C34.0139 6.72222 33.3822 7.06278 32.6467 7.18833C31.9111 7.31389 31.1678 7.30667 30.4167 7.16667C30.1944 7.11111 29.9794 7.05555 29.7717 7C29.5639 6.94444 29.39 6.98611 29.25 7.125C29.0833 7.29167 29.0278 7.5 29.0833 7.75C29.1389 8 29.1944 8.23611 29.25 8.45833C29.3611 9.20833 29.3683 9.95167 29.2717 10.6883C29.175 11.425 28.8622 12.0706 28.3333 12.625C27.8044 13.1794 27.1728 13.5128 26.4383 13.625C25.7039 13.7372 24.9606 13.7233 24.2083 13.5833C23.9861 13.5278 23.7778 13.4722 23.5833 13.4167C23.3889 13.3611 23.2222 13.4028 23.0833 13.5417C22.9167 13.7083 22.8544 13.9167 22.8967 14.1667C22.9389 14.4167 22.9872 14.6528 23.0417 14.875C23.1528 15.625 23.1667 16.3683 23.0833 17.105C23 17.8417 22.6944 18.4872 22.1667 19.0417C21.6389 19.5694 21.0072 19.8961 20.2717 20.0217C19.5361 20.1472 18.7928 20.14 18.0417 20C17.8194 19.9444 17.6111 19.8956 17.4167 19.8533C17.2222 19.8111 17.0556 19.86 16.9167 20C16.75 20.1667 16.6878 20.3683 16.73 20.605C16.7722 20.8417 16.8206 21.0706 16.875 21.2917C16.9861 22.0417 17 22.785 16.9167 23.5217C16.8333 24.2583 16.5278 24.9039 16 25.4583C15.4722 26.0128 14.8333 26.3461 14.0833 26.4583C13.3333 26.5706 12.5833 26.5567 11.8333 26.4167C11.6111 26.3611 11.4028 26.3128 11.2083 26.2717C11.0139 26.2306 10.8472 26.2789 10.7083 26.4167C10.5417 26.5833 10.4861 26.785 10.5417 27.0217C10.5972 27.2583 10.6528 27.4872 10.7083 27.7083C10.8194 28.4583 10.8267 29.2017 10.73 29.9383C10.6333 30.675 10.3206 31.3206 9.79167 31.875C9.26278 32.4294 8.63111 32.7628 7.89667 32.875C7.16222 32.9872 6.41889 32.9733 5.66667 32.8333C5.44444 32.7778 5.23611 32.7294 5.04167 32.6883C4.84722 32.6472 4.68056 32.6956 4.54167 32.8333C4.375 33 4.18722 33.125 3.97833 33.2083C3.76944 33.2917 3.55444 33.3333 3.33333 33.3333ZM8.33333 16.6667C6.02778 16.6667 4.06278 15.8544 2.43833 14.23C0.813889 12.6056 0.00111111 10.64 0 8.33333C0 6 0.812778 4.02778 2.43833 2.41667C4.06389 0.805556 6.02889 0 8.33333 0C10.6667 0 12.6389 0.805556 14.25 2.41667C15.8611 4.02778 16.6667 6 16.6667 8.33333C16.6667 10.6389 15.8611 12.6044 14.25 14.23C12.6389 15.8556 10.6667 16.6678 8.33333 16.6667ZM25 36.6667C24.0833 36.6667 23.2989 36.3406 22.6467 35.6883C21.9944 35.0361 21.6678 34.2511 21.6667 33.3333V25C21.6667 24.0833 21.9933 23.2989 22.6467 22.6467C23.3 21.9944 24.0844 21.6678 25 21.6667H33.3333C34.25 21.6667 35.035 21.9933 35.6883 22.6467C36.3417 23.3 36.6678 24.0844 36.6667 25V33.3333C36.6667 34.25 36.3406 35.035 35.6883 35.6883C35.0361 36.3417 34.2511 36.6678 33.3333 36.6667H25Z" fill="currentColor"/></svg>