<svg fill="none" viewBox="0 0 24 24" xmlns="http://www.w3.org/2000/svg">
  <path fill="currentColor" d="M6.26,14.09c-.57,0-1.07-.2-1.47-.61-.41-.41-.61-.9-.61-1.47s.2-1.07.61-1.47c.41-.41.9-.61,1.47-.61s1.06.2,1.47.61c.41.41.61.9.61,1.47s-.21,1.06-.61,1.47c-.41.41-.9.62-1.47.61M6.26,18.26c-1.74,0-3.22-.61-4.43-1.83-1.22-1.22-1.83-2.7-1.83-4.43s.61-3.22,1.83-4.43c1.22-1.22,2.7-1.83,4.43-1.83,1.17,0,2.22.29,3.17.86.95.57,1.7,1.33,2.26,2.27h9.18l3.13,3.13-4.7,4.7-2.09-1.57-2.09,1.57-2.22-1.57h-1.23c-.56.94-1.31,1.7-2.26,2.27-.95.57-2,.86-3.17.86M6.26,16.17c.97,0,1.83-.3,2.57-.89.74-.59,1.23-1.34,1.47-2.24h3.26l1.51,1.07,2.14-1.59,1.85,1.43,1.96-1.96-1.04-1.04h-9.68c-.24-.9-.73-1.65-1.47-2.24-.74-.59-1.6-.89-2.57-.89-1.15,0-2.13.41-2.95,1.23-.82.82-1.23,1.8-1.23,2.95s.41,2.13,1.23,2.95c.82.82,1.8,1.23,2.95,1.23"/>
</svg>
