<svg fill="none" viewBox="0 0 24 24" xmlns="http://www.w3.org/2000/svg">
  <path fill="currentColor" d="M2.4,1.2l2.4,4.8h3.6L6,1.2h2.4l2.4,4.8h3.6l-2.4-4.8h2.4l2.4,4.8h3.6l-2.4-4.8h3.6c.66,0,1.23.24,1.7.71.47.47.71,1.04.7,1.69v16.8c0,.66-.23,1.23-.7,1.7-.47.47-1.03.71-1.7.7H2.4c-.66,0-1.22-.23-1.69-.7-.47-.47-.7-1.03-.71-1.7V3.6c0-.66.24-1.22.71-1.69.47-.47,1.04-.7,1.69-.71M7.2,19.2h9.6v-.66c0-.88-.44-1.59-1.32-2.13-.88-.54-2.04-.81-3.48-.81s-2.6.27-3.48.81-1.32,1.25-1.32,2.13v.66ZM12,14.4c.66,0,1.23-.23,1.7-.7.47-.47.71-1.03.7-1.7s-.24-1.23-.7-1.69c-.47-.47-1.03-.7-1.7-.71s-1.23.23-1.69.71c-.47.47-.7,1.04-.71,1.69s.23,1.22.71,1.7c.47.47,1.04.71,1.69.7"/>
</svg>
